# xmcd CD database file
#
# Track frame offsets:
#	150
#	24960
#	66337
#	97970
#	125502
#	181050
#	194127
#
# Disc length: 3114 seconds
#
# Revision: 1
# Processed by: cddbd v1.4PL0 Copyright (c) Steve Scherf et al.
# Submitted via: CDex 1.50Beta7
#
DISCID=5b0c2807
DTITLE=Wynton Marsalis - One by One
DYEAR=1900
DGENRE=Jazz
TTITLE0=One By One
TTITLE1=My Funny Valentine
TTITLE2=Round About Midnight
TTITLE3=Eta
TTITLE4=Time Will Tell
TTITLE5=Blakey's Theme
TTITLE6=Angel Eyes
EXTD=
EXTT0=
EXTT1=
EXTT2=
EXTT3=
EXTT4=
EXTT5=
EXTT6=
PLAYORDER=
